<?xml version="1.0" encoding="UTF-8" standalone="no"?>
<!DOCTYPE svg PUBLIC "-//W3C//DTD SVG 1.1//EN" "http://www.w3.org/Graphics/SVG/1.1/DTD/svg11.dtd">
<svg width="100%" height="100%" viewBox="0 0 150 317" version="1.1" xmlns="http://www.w3.org/2000/svg" xmlns:xlink="http://www.w3.org/1999/xlink" xml:space="preserve" style="fill-rule:evenodd;clip-rule:evenodd;stroke-linejoin:round;stroke-miterlimit:1.41421;">
    <g transform="matrix(1,0,0,1,-504.52,-419.24)">
        <path d="M539,735.68L646,559C646.176,558.696 646.268,558.351 646.268,558C646.268,556.911 645.379,556.012 644.29,556L585.84,555.94L622.16,420.54C622.183,420.455 622.195,420.367 622.195,420.279C622.195,419.731 621.743,419.279 621.195,419.279C620.846,419.279 620.521,419.462 620.34,419.76L512.93,596.5C512.754,596.804 512.662,597.149 512.662,597.5C512.662,598.585 513.545,599.483 514.63,599.5L572.14,599.67C572.152,599.67 572.163,599.669 572.175,599.669C572.723,599.669 573.175,600.121 573.175,600.669C573.175,600.757 573.163,600.845 573.14,600.93L537.14,734.87C537.084,734.998 537.056,735.136 537.056,735.275C537.056,735.831 537.514,736.289 538.07,736.289C538.473,736.289 538.839,736.049 539,735.68L539,735.68Z" style="fill:rgb(14,28,54);fill-rule:nonzero;"/>
    </g>
</svg>
