<svg id="Layer_1" data-name="Layer 1" xmlns="http://www.w3.org/2000/svg" xmlns:xlink="http://www.w3.org/1999/xlink" viewBox="0 0 591.88 317.01"><defs><linearGradient id="linear-gradient" x1="320.16" y1="-293.82" x2="390.89" y2="-205" gradientTransform="matrix(1, 0, 0, -1, -283.65, -101.24)" gradientUnits="userSpaceOnUse"><stop offset="0"/><stop offset="0.05" stop-color="#04080f"/><stop offset="0.13" stop-color="#081121"/><stop offset="0.23" stop-color="#0c172d"/><stop offset="0.36" stop-color="#0d1b34"/><stop offset="0.69" stop-color="#0e1c36"/></linearGradient><linearGradient id="linear-gradient-2" x1="226.81" y1="-293.82" x2="297.54" y2="-205" gradientTransform="translate(782.18 -101.24) rotate(180)" xlink:href="#linear-gradient"/></defs><title>logo_blue</title><path d="M0,147.2L200.17,46a3,3,0,0,1,4.35,2.68V71.76a3,3,0,0,1-1.68,2.69l-170.64,84v0.87l170.64,84a3,3,0,0,1,1.68,2.69v23.15a3,3,0,0,1-4.35,2.68L1.68,171.39A3,3,0,0,1,0,168.71V147.2Z" transform="translate(0 -0.04)" style="fill:#0e1c36"/><path d="M590.22,171.82l-198.49,100a3,3,0,0,1-4.35-2.68V246a3,3,0,0,1,1.68-2.7l172-84v-0.87l-172-84a3,3,0,0,1-1.71-2.68V48.66A3,3,0,0,1,391.7,46L591.87,146.76v22.38A3,3,0,0,1,590.22,171.82Z" transform="translate(0 -0.04)" style="fill:#0e1c36"/><path d="M32.5,159.45l170.37-85a3,3,0,0,0,1.66-2.68V48.67A3,3,0,0,0,200.18,46L0,147.2Z" transform="translate(0 -0.04)" style="fill:url(#linear-gradient)"/><path d="M255.35,316.44l107-176.68a2,2,0,0,0-1.71-3l-58.45-.06L338.51,1.3a1,1,0,0,0-1.82-.78L229.28,177.26a2,2,0,0,0,1.7,3l57.51,0.17a1,1,0,0,1,1,1.26l-36,133.94A1,1,0,1,0,255.35,316.44Z" transform="translate(0 -0.04)" style="fill:#0e1c36"/><path d="M591.88,147.2L391.7,46a3,3,0,0,0-4.35,2.68v23.1A3,3,0,0,0,389,74.45l171.15,85.3Z" transform="translate(0 -0.04)" style="fill:url(#linear-gradient-2)"/></svg>