<svg id="Layer_1" data-name="Layer 1" xmlns="http://www.w3.org/2000/svg" xmlns:xlink="http://www.w3.org/1999/xlink" viewBox="0 0 591.87 316.95"><defs><linearGradient id="linear-gradient" x1="781.83" y1="374.42" x2="944.26" y2="460.12" gradientUnits="userSpaceOnUse"><stop offset="0.66" stop-color="#f8f9f5"/><stop offset="1" stop-color="#cdc9c9"/></linearGradient><linearGradient id="linear-gradient-2" x1="334.15" y1="459.36" x2="458.01" y2="396.88" gradientUnits="userSpaceOnUse"><stop offset="0" stop-color="#cdc9c9"/><stop offset="0.54" stop-color="#f8f9f5"/></linearGradient></defs><title>logo_quickWhite</title><path d="M344.92,439.24L545.09,338.05a3,3,0,0,1,4.35,2.68v23.11a3,3,0,0,1-1.68,2.69l-170.64,84v0.87l170.64,84a3,3,0,0,1,1.68,2.69V561.2a3,3,0,0,1-4.35,2.68L346.6,463.43a3,3,0,0,1-1.68-2.68V439.24Z" transform="translate(-344.92 -292.04)" style="fill:#f8f9f5"/><path d="M935.14,463.86l-198.49,100a3,3,0,0,1-4.35-2.68V538.05a3,3,0,0,1,1.68-2.7l172-84v-0.87l-172-84a3,3,0,0,1-1.68-2.7V340.7a3,3,0,0,1,4.35-2.68L936.79,438.8v22.38A3,3,0,0,1,935.14,463.86Z" transform="translate(-344.92 -292.04)" style="fill:#f8f9f5"/><path d="M905.92,451.35l-172-84.84a3,3,0,0,1-1.67-2.69V340.7A3,3,0,0,1,736.6,338L936.79,438.8Z" transform="translate(-344.92 -292.04)" style="fill:url(#linear-gradient)"/><path d="M377.42,451.49l170.37-85a3,3,0,0,0,1.66-2.68v-23.1A3,3,0,0,0,545.1,338L344.92,439.24Z" transform="translate(-344.92 -292.04)" style="fill:url(#linear-gradient-2)"/><path d="M600.23,608.48l107-176.72a2,2,0,0,0-1.71-3l-58.45-.06,36.32-135.4a1,1,0,0,0-1.82-.78L574.2,469.3a2,2,0,0,0,1.7,3l57.51,0.17a1,1,0,0,1,1,1.26l-36,133.94A1,1,0,0,0,600.23,608.48Z" transform="translate(-344.92 -292.04)" style="fill:#f8f9f5"/></svg>