<svg id="Layer_1" data-name="Layer 1" xmlns="http://www.w3.org/2000/svg" xmlns:xlink="http://www.w3.org/1999/xlink" viewBox="0 0 591.87 316.95"><defs><linearGradient id="linear-gradient" x1="720.56" y1="501.61" x2="883" y2="587.32" gradientUnits="userSpaceOnUse"><stop offset="0.72" stop-color="#0e1c36"/><stop offset="0.76" stop-color="#0d1b40"/><stop offset="0.82" stop-color="#0a185a"/><stop offset="0.9" stop-color="#061385"/><stop offset="1" stop-color="#000cbf"/></linearGradient><linearGradient id="linear-gradient-2" x1="320.16" y1="611.82" x2="390.89" y2="523" gradientUnits="userSpaceOnUse"><stop offset="0" stop-color="#000cbf"/><stop offset="0.05" stop-color="#030fa6"/><stop offset="0.14" stop-color="#07147e"/><stop offset="0.22" stop-color="#0a175f"/><stop offset="0.31" stop-color="#0c1a48"/><stop offset="0.39" stop-color="#0e1b3b"/><stop offset="0.46" stop-color="#0e1c36"/></linearGradient></defs><title>logo_blue</title><path d="M283.65,566.44L483.82,465.25a3,3,0,0,1,4.35,2.68V491a3,3,0,0,1-1.68,2.69l-170.64,84v0.87l170.64,84a3,3,0,0,1,1.68,2.69V688.4a3,3,0,0,1-4.35,2.68L285.33,590.63a3,3,0,0,1-1.68-2.68V566.44Z" transform="translate(-283.65 -419.24)" style="fill:#0e1c36"/><path d="M873.87,591.06l-198.49,100a3,3,0,0,1-4.35-2.68V665.25a3,3,0,0,1,1.68-2.7l172-84v-0.87l-172-84A3,3,0,0,1,671,491V467.9a3,3,0,0,1,4.35-2.68L875.52,566v22.38A3,3,0,0,1,873.87,591.06Z" transform="translate(-283.65 -419.24)" style="fill:#0e1c36"/><path d="M844.65,578.55l-172-84.84A3,3,0,0,1,671,491V467.9a3,3,0,0,1,4.35-2.68L875.52,566Z" transform="translate(-283.65 -419.24)" style="fill:url(#linear-gradient)"/><path d="M316.15,578.69l170.37-85a3,3,0,0,0,1.66-2.68v-23.1a3,3,0,0,0-4.35-2.68L283.65,566.44Z" transform="translate(-283.65 -419.24)" style="fill:url(#linear-gradient-2)"/><path d="M539,735.68L646,559a2,2,0,0,0-1.71-3l-58.45-.06,36.32-135.4a1,1,0,0,0-1.82-.78L512.93,596.5a2,2,0,0,0,1.7,3l57.51,0.17a1,1,0,0,1,1,1.26l-36,133.94A1,1,0,0,0,539,735.68Z" transform="translate(-283.65 -419.24)" style="fill:#0e1c36"/></svg>